# xmcd CD database file
#
# Track frame offsets:
#	150
#	3225
#	19281
#	33324
#	48175
#	62051
#	76052
#	92059
#	109480
#	112214
#	129520
#	142020
#	161664
#	171921
#	188754
#	202247
#	218885
#
# Disc length: 2960 seconds
#
# Revision: 0
# Processed by: cddbd v1.5.2PL0 Copyright (c) Steve Scherf et al.
# Submitted via: CDex 1.70beta2
#
DISCID=f30b8e11
DTITLE=Coppelius - Tumult
DYEAR=2009
DGENRE=Heavy Wood
TTITLE0=Vorwort
TTITLE1=Habgier
TTITLE2=Rightful Ring
TTITLE3=Zu Dir
TTITLE4=Komposition
TTITLE5=Der Advokat
TTITLE6=Army of Me [#]
TTITLE7=Die Glocke
TTITLE8=Mondeslicht
TTITLE9=Coppelia
TTITLE10=Lilienthal
TTITLE11=Charlotte the Karlot
TTITLE12=Das Amulett
TTITLE13=Viel zu Viel
TTITLE14=Spring Doch
TTITLE15=Gedicht
TTITLE16=Nachwort
EXTD=YEAR: 2009
EXTT0=
EXTT1=
EXTT2=
EXTT3=
EXTT4=
EXTT5=
EXTT6=
EXTT7=
EXTT8=
EXTT9=
EXTT10=
EXTT11=
EXTT12=
EXTT13=
EXTT14=
EXTT15=
EXTT16=
PLAYORDER=
